<svg aria-hidden="true" style="position: absolute; width: 0; height: 0; overflow: hidden;" version="1.1" xmlns="http://www.w3.org/2000/svg" xmlns:xlink="http://www.w3.org/1999/xlink">
<defs>
<symbol id="facebook"  viewBox="0 0 32 32">
<path d="M29 0h-26c-1.65 0-3 1.35-3 3v26c0 1.65 1.35 3 3 3h13v-14h-4v-4h4v-2c0-3.306 2.694-6 6-6h4v4h-4c-1.1 0-2 0.9-2 2v2h6l-1 4h-5v14h9c1.65 0 3-1.35 3-3v-26c0-1.65-1.35-3-3-3z"></path>
</symbol>
<symbol id="instagram"  viewBox="0 0 32 32">
<path d="M27.2 1.6h-22.4c-1.76 0-3.2 1.44-3.2 3.2v22.4c0 1.762 1.44 3.2 3.2 3.2h22.4c1.76 0 3.2-1.438 3.2-3.2v-22.4c0-1.76-1.44-3.2-3.2-3.2zM15.974 24.837c4.894 0 8.861-3.97 8.861-8.862 0-0.541-0.069-1.062-0.165-1.574h2.53v11.546c0 0.611-0.496 1.104-1.109 1.104h-20.182c-0.613 0-1.109-0.493-1.109-1.104v-11.546h2.478c-0.098 0.512-0.166 1.034-0.166 1.574 0 4.894 3.97 8.862 8.862 8.862zM10.437 15.974c0-3.059 2.48-5.538 5.539-5.538s5.539 2.478 5.539 5.538-2.482 5.539-5.539 5.539c-3.061 0-5.539-2.48-5.539-5.539zM26.091 9.6h-2.584c-0.611 0-1.107-0.499-1.107-1.107v-2.587c0-0.611 0.496-1.106 1.106-1.106h2.584c0.614 0 1.11 0.494 1.11 1.106v2.586c0 0.61-0.496 1.109-1.109 1.109z"></path>
</symbol>
<symbol id="twitter"  viewBox="0 0 27 32">
<path d="M22.857 10.893c-0.679 0.304-1.393 0.501-2.161 0.607 0.786-0.464 1.375-1.214 1.661-2.089-0.733 0.429-1.536 0.75-2.393 0.911-0.679-0.733-1.661-1.178-2.733-1.178-2.072 0-3.75 1.679-3.75 3.75 0 0.286 0.018 0.59 0.089 0.857-3.125-0.161-5.893-1.642-7.75-3.928-0.321 0.553-0.518 1.214-0.518 1.893 0 1.304 0.607 2.447 1.625 3.125-0.625-0.018-1.214-0.197-1.786-0.464v0.035c0 1.822 1.375 3.339 3.089 3.679-0.321 0.089-0.571 0.143-0.911 0.143-0.232 0-0.464-0.035-0.696-0.072 0.482 1.482 1.857 2.571 3.501 2.607-1.286 1-2.893 1.607-4.661 1.607-0.304 0-0.607-0.018-0.893-0.054 1.661 1.054 3.625 1.679 5.75 1.679 6.893 0 10.679-5.714 10.679-10.679 0-0.161 0-0.321-0.018-0.482 0.733-0.518 1.375-1.178 1.875-1.946zM27.429 7.429v17.143c0 2.839-2.304 5.143-5.143 5.143h-17.143c-2.839 0-5.143-2.304-5.143-5.143v-17.143c0-2.839 2.304-5.143 5.143-5.143h17.143c2.839 0 5.143 2.304 5.143 5.143z"></path>
</symbol>
</defs>
</svg>
